<?xml version="1.0" encoding="UTF-8"?>
<svg width="26px" height="26px" viewBox="0 0 26 26" version="1.1" xmlns="http://www.w3.org/2000/svg" xmlns:xlink="http://www.w3.org/1999/xlink">
    <title>飞机</title>
    <g id="有光英语20230929✅" stroke="none" stroke-width="1" fill="none" fill-rule="evenodd">
        <g id="关注点" transform="translate(-294.000000, -162.000000)" fill="#333333" fill-rule="nonzero">
            <g id="飞机" transform="translate(294.000000, 162.000000)">
                <path d="M25.6291076,0.129848533 C25.3569026,-0.0456134385 25.0065812,-0.0430611334 24.7369619,0.136348358 L0.361395855,16.3859331 C0.10979232,16.5529182 -0.0277687133,16.8462003 0.00470008747,17.1464137 C0.0352925543,17.4465395 0.230460519,17.7046624 0.510899329,17.8158966 L6.86804695,20.3597691 L9.85730387,25.5905105 C10.0003063,25.8408887 10.2653022,25.9967247 10.5536325,26 L10.5625702,26 C10.8477644,26 11.1126455,25.8488789 11.2588989,25.6051351 L12.9465006,22.7915195 L20.823871,25.9415015 C21.0520395,26.0333526 21.3096623,26.015999 21.5234498,25.8943777 C21.7379547,25.7741308 21.8850207,25.5628861 21.9264591,25.3199549 L25.9890535,0.945577686 C26.0418767,0.626298233 25.9005654,0.306050835 25.6291076,0.129848533 Z M2.54788415,16.880733 L21.3780089,4.32711627 L7.68706599,18.9818043 C7.61475181,18.9387429 7.55056282,18.8818694 7.47093597,18.8501827 L2.54788415,16.880733 Z M8.27857972,19.5529772 L8.27289209,19.5448524 L23.664437,3.07183586 L10.5430698,23.5154385 L8.27857972,19.5529772 Z M20.4891133,24.0565497 L13.5493896,21.2811206 C13.3869222,21.2219974 13.2160122,21.1893532 13.0431904,21.1844355 L23.7294385,4.61960881 L20.4891133,24.0565497 L20.4891133,24.0565497 Z" id="形状"></path>
            </g>
        </g>
    </g>
</svg>