<?xml version="1.0" encoding="UTF-8"?>
<svg width="606px" height="197px" viewBox="0 0 606 197" version="1.1" xmlns="http://www.w3.org/2000/svg" xmlns:xlink="http://www.w3.org/1999/xlink">
    <title>编组</title>
    <g id="有光英语20230929✅" stroke="none" stroke-width="1" fill="none" fill-rule="evenodd">
        <g id="欢迎页" transform="translate(-657.000000, -318.000000)">
            <g id="logo-2" transform="translate(657.000000, 318.000000)">
                <g id="编组" transform="translate(6.000000, 6.000000)">
                    <rect id="矩形" stroke="#4D57FF" stroke-width="6" fill="#4D57FF" x="-3" y="-3" width="600" height="191"></rect>
                    <rect id="矩形" fill="#FFFFFF" x="191" y="0" width="403" height="185"></rect>
                    <path d="M48.264,85.732 C56.1066667,81.8786667 62.3626667,76.9713333 67.032,71.01 C71.7013333,65.0486667 74.92,57.92 76.688,49.624 L76.688,49.624 L77.98,49.556 C77.6626667,57.58 77.1866667,63.6773333 76.552,67.848 C75.9173333,72.0186667 75.2146667,74.4893333 74.444,75.26 C74.1266667,75.668 73.628,75.872 72.948,75.872 L72.948,75.872 L72.744,75.94 C72.608,75.8946667 72.438,75.872 72.234,75.872 L72.234,75.872 L71.52,75.872 C70.9306667,75.8266667 70.1486667,75.8153333 69.174,75.838 C68.1993333,75.8606667 66.8506667,75.8493333 65.128,75.804 L65.128,75.804 L64.924,78.66 C66.5106667,78.932 67.7006667,79.2266667 68.494,79.544 C69.2873333,79.8613333 69.8426667,80.2013333 70.16,80.564 C70.3413333,80.7453333 70.5226667,81.142 70.704,81.754 C70.8853333,82.366 70.976,83.4426667 70.976,84.984 C72.9253333,84.8933333 74.58,84.5646667 75.94,83.998 C77.3,83.4313333 78.456,82.604 79.408,81.516 C80.9946667,79.7026667 82.2413333,76.1666667 83.148,70.908 C84.0546667,65.6493333 84.6893333,58.6453333 85.052,49.896 C85.5506667,49.76 86.0153333,49.5446667 86.446,49.25 C86.8766667,48.9553333 87.3413333,48.4 87.84,47.584 L87.84,47.584 L81.244,41.6 L77.98,45.544 L62.748,46.428 C65.7853333,43.572 68.6413333,40.784 71.316,38.064 C73.9906667,35.344 76.5293333,32.692 78.932,30.108 C79.748,29.972 80.5186667,29.734 81.244,29.394 C81.9693333,29.054 82.6493333,28.408 83.284,27.456 L83.284,27.456 L76.076,20.928 L73.152,24.872 L50.916,26.096 L52.004,29.972 L70.296,29.02 C68.12,31.332 65.7513333,33.7573333 63.19,36.296 C60.6286667,38.8346667 57.8293333,41.5093333 54.792,44.32 C54.0666667,44.456 53.3073333,44.66 52.514,44.932 C51.7206667,45.204 50.7573333,45.68 49.624,46.36 L49.624,46.36 L55.608,53.432 L58.736,50.644 L60.776,50.508 C59.1893333,55.3586667 57.07,59.7446667 54.418,63.666 C51.766,67.5873333 48.4453333,71.18 44.456,74.444 L44.456,74.444 L46.02,76.824 C51.596,73.4693333 56.1633333,69.582 59.722,65.162 C63.2806667,60.742 66.012,55.7213333 67.916,50.1 L67.916,50.1 L69.344,50.032 C67.848,57.2853333 65.2866667,63.632 61.66,69.072 C58.0333333,74.512 53.16,79.1813333 47.04,83.08 L47.04,83.08 L48.264,85.732 Z M33.984,77.436 C34.7546667,76.9826667 35.31,76.5633333 35.65,76.178 C35.99,75.7926667 36.2506667,75.3506667 36.432,74.852 C39.6053333,72.676 42.6766667,70.5226667 45.646,68.392 C48.6153333,66.2613333 51.5506667,63.9946667 54.452,61.592 L54.452,61.592 L53.772,59.212 L45.272,62.476 L45.272,44.456 L52.48,44.048 C53.024,44.0026667 53.534,43.81 54.01,43.47 C54.486,43.13 54.8373333,42.484 55.064,41.532 C54.2933333,40.58 53.4433333,39.5826667 52.514,38.54 C51.5846667,37.4973333 50.3946667,36.228 48.944,34.732 L48.944,34.732 L45.884,40.444 L45.272,40.444 L45.272,27.048 C45.816,26.776 46.3033333,26.368 46.734,25.824 C47.1646667,25.28 47.448,24.4413333 47.584,23.308 L47.584,23.308 L37.996,22.696 L37.996,40.852 L29.972,41.328 L30.924,45.272 L37.996,44.864 L37.996,65.128 C36.364,65.7173333 34.902,66.2273333 33.61,66.658 C32.318,67.0886667 30.992,67.508 29.632,67.916 L29.632,67.916 L33.984,77.436 Z M122.904,86.072 C124.898667,85.7546667 126.508,85.3466667 127.732,84.848 C128.956,84.3493333 129.930667,83.6466667 130.656,82.74 C131.2,82.0146667 131.585333,81.142 131.812,80.122 C132.038667,79.102 132.152,77.98 132.152,76.756 L132.152,76.756 L132.152,67.44 L138.272,67.1 L138.272,69.018 L137.93064,68.99176 C137.184272,68.9402613 136.411502,68.9035595 135.61233,68.8816544 L135.008,68.868 L134.192,71.452 C137.501333,73.0386667 140.198667,74.716 142.284,76.484 C144.369333,78.252 146.001333,80.2466667 147.18,82.468 C149.038667,83.556 150.648,83.3746667 152.008,81.924 C152.688,81.1986667 153.096,80.394 153.232,79.51 C153.368,78.626 153.277333,77.708 152.96,76.756 C152.098667,74.0813333 150.160667,72.1206667 147.146,70.874 C145.457787,70.1758667 143.446147,69.6589941 141.111082,69.3233824 L140.842,69.287 L141.03008,69.25832 C141.135253,69.23928 141.241333,69.2170667 141.34832,69.19168 L141.672,69.106 C142.216,68.9473333 142.782667,68.7546667 143.372,68.528 C144.188,68.256 144.766,67.9273333 145.106,67.542 C145.446,67.1566667 145.661333,66.8506667 145.752,66.624 L145.752,66.624 L145.752,57.852 C146.205333,57.6253333 146.647333,57.3533333 147.078,57.036 C147.508667,56.7186667 148.041333,56.152 148.676,55.336 L148.676,55.336 L142.431,50.397 L153.844,49.76 C154.32,49.76 154.769969,49.6211667 155.193906,49.3435 L155.374,49.216 C155.85,48.8533333 156.201333,48.1733333 156.428,47.176 C155.521333,46.224 154.524,45.2833333 153.436,44.354 C152.348,43.4246667 151.033333,42.348 149.492,41.124 L149.492,41.124 L146.024,46.292 L131.948,47.04 L131.948,47.04 L131.948,46.836 C132.356,45.748 132.288,44.7053333 131.744,43.708 C131.605333,43.42 131.443451,43.1583529 131.258353,42.9230588 L131.12,42.758 L139.904,42.28 L139.904,45 L141.74,44.864 C142.692,44.8186667 143.78,44.5013333 145.004,43.912 C145.729333,43.5946667 146.273333,43.266 146.636,42.926 C146.998667,42.586 147.202667,42.3026667 147.248,42.076 L147.248,42.076 L147.248,28.408 C147.701333,28.1813333 148.154667,27.898 148.608,27.558 C149.061333,27.218 149.582667,26.64 150.172,25.824 L150.172,25.824 L142.896,19.84 L139.768,23.852 L117.056,25.076 L110.052,22.22 L110.052,47.652 L111.752,47.584 C112.976,47.4933333 114.177333,47.1533333 115.356,46.564 C116.126667,46.156 116.659333,45.7366667 116.954,45.306 C117.248667,44.8753333 117.396,44.524 117.396,44.252 L117.396,44.252 L117.396,43.504 L122.138,43.246 L122.088,43.3 C122.974519,43.9447407 123.690897,44.5536626 124.237136,45.1267654 L124.434,45.34 C125.000667,45.9746667 125.465333,46.6546667 125.828,47.38 L125.828,47.38 L100.464,48.808 L101.416,52.684 L111.48,52.123 L111.48,71.588 L112.772,71.52 C111.276,73.7866667 109.564667,75.906 107.638,77.878 C105.711333,79.85 103.456,81.72 100.872,83.488 L100.872,83.488 L102.232,85.732 C106.130667,84.4626667 109.519333,82.9326667 112.398,81.142 C114.042952,80.1187619 115.580585,78.9956054 117.010898,77.7725306 L117.124,77.674 L117.124,79.952 C118.504923,80.0775385 119.557515,80.2706746 120.281775,80.5314083 L120.456,80.598 C121.181333,80.8926667 121.702667,81.1986667 122.02,81.516 C122.201333,81.788 122.371333,82.2526667 122.53,82.91 C122.688667,83.5673333 122.813333,84.6213333 122.904,86.072 Z M117.396,32.216 L117.396,29.088 L139.904,27.864 L139.904,30.992 L117.396,32.216 Z M117.396,39.492 L117.396,36.228 L139.904,35.004 L139.904,38.268 L117.396,39.492 Z M118.484,54.452 L112.616,52.059 L140.348,50.513 L138.136,53.364 L118.484,54.452 Z M118.892,64.176 L118.892,58.464 L138.272,57.376 L138.272,63.088 L118.892,64.176 Z M122.420757,77.2315976 L121.913618,77.2313956 C120.917493,77.22656 119.602222,77.1927111 117.967804,77.1298489 L117.75,77.122 L118.06351,76.8364898 C118.579755,76.359102 119.080908,75.8676633 119.566969,75.3621735 L120.048,74.852 C120.592,74.852 121.113333,74.7046667 121.612,74.41 C122.110667,74.1153333 122.586667,73.424 123.04,72.336 L123.04,72.336 L117.872,69.82 C118.234667,69.5026667 118.495333,69.208 118.654,68.936 C118.812667,68.664 118.892,68.4146667 118.892,68.188 L118.892,68.188 L124.74,67.848 L124.74,77.028 C124.74,77.1186667 124.649333,77.164 124.468,77.164 C124.105333,77.2093333 123.334667,77.232 122.156,77.232 L122.420757,77.2315976 Z M45.612,120.852 L47.38,120.716 C48.604,120.670667 49.76,120.398667 50.848,119.9 C51.6186667,119.673333 52.1513333,119.356 52.446,118.948 C52.7406667,118.54 52.888,118.2 52.888,117.928 L52.888,117.928 L52.888,113.304 L64.244,112.692 L64.244,119.56 L66.012,119.424 C67.3266667,119.333333 68.528,119.061333 69.616,118.608 C70.3413333,118.336 70.8513333,117.996 71.146,117.588 C71.4406667,117.18 71.588,116.84 71.588,116.568 L71.588,116.568 L71.588,112.284 L84.644,111.536 C85.1426667,111.490667 85.6413333,111.309333 86.14,110.992 C86.6386667,110.674667 86.9786667,109.994667 87.16,108.952 C86.2533333,107.954667 85.2673333,106.968667 84.202,105.994 C83.1366667,105.019333 81.788,103.852 80.156,102.492 L80.156,102.492 L76.62,107.932 L71.588,108.272 L71.588,104.464 C72.1773333,104.192 72.676,103.795333 73.084,103.274 C73.492,102.752667 73.7413333,101.902667 73.832,100.724 L73.832,100.724 L64.244,100.316 L64.244,108.68 L52.888,109.292 L52.888,105.484 C53.432,105.212 53.8966667,104.804 54.282,104.26 C54.6673333,103.716 54.928,102.9 55.064,101.812 L55.064,101.812 L45.612,101.336 L45.612,109.7 L30.176,110.516 L30.992,114.528 L45.612,113.712 L45.612,120.852 Z M31.196,167.432 C39.22,165.210667 45.6346667,162.218667 50.44,158.456 C55.2453333,154.693333 58.5093333,150.046667 60.232,144.516 C61.9546667,149.774667 64.6746667,154.07 68.392,157.402 C72.1093333,160.734 76.96,163.170667 82.944,164.712 C83.352,162.672 83.9186667,161.164667 84.644,160.19 C85.3693333,159.215333 86.3666667,158.501333 87.636,158.048 L87.636,158.048 L87.636,155.668 C81.3346667,155.033333 76.2346667,153.764 72.336,151.86 C68.4373333,149.956 65.5133333,147.372 63.564,144.108 L63.564,144.108 L84.848,142.952 C85.4373333,142.906667 85.9813333,142.714 86.48,142.374 C86.9786667,142.034 87.3413333,141.342667 87.568,140.3 C86.616,139.393333 85.6186667,138.43 84.576,137.41 C83.5333333,136.39 82.2186667,135.154667 80.632,133.704 C80.1333333,134.52 79.68,135.268 79.272,135.948 C78.9093333,136.582667 78.5693333,137.183333 78.252,137.75 C77.9346667,138.316667 77.708,138.758667 77.572,139.076 L77.572,139.076 L77.572,127.924 C78.1613333,127.742667 78.694,127.470667 79.17,127.108 C79.646,126.745333 80.156,126.156 80.7,125.34 L80.7,125.34 L72.948,119.492 L70.092,123.844 L61.864,124.252 L61.864,118.812 C62.4533333,118.585333 62.9406667,118.2 63.326,117.656 C63.7113333,117.112 63.9493333,116.296 64.04,115.208 L64.04,115.208 L54.588,114.528 L54.588,124.66 L46.632,125.136 L39.56,122.348 L39.56,141.456 L30.04,141.932 L31.128,145.944 L52.888,144.72 C51.4826667,148.936 48.9666667,152.676 45.34,155.94 C41.7133333,159.204 36.7266667,162.06 30.38,164.508 L30.38,164.508 L31.196,167.432 Z M61.184,140.232 C61.4106667,138.872 61.5806667,137.466667 61.694,136.016 C61.8073333,134.565333 61.864,133.114667 61.864,131.664 L61.864,131.664 L61.864,128.264 L70.228,127.856 L70.228,139.756 L61.184,140.232 Z M46.7,141.048 L46.7,129.148 L54.588,128.672 L54.588,132.004 C54.588,135.086667 54.3613333,137.965333 53.908,140.64 L53.908,140.64 L46.7,141.048 Z M115.9,136.22 L155.612,134.044 C156.156,133.998667 156.654667,133.806 157.108,133.466 C157.561333,133.126 157.924,132.48 158.196,131.528 C157.38,130.576 156.507333,129.635333 155.578,128.706 C154.648667,127.776667 153.481333,126.654667 152.076,125.34 C151.622667,126.02 151.214667,126.677333 150.852,127.312 C150.489333,127.810667 150.172,128.332 149.9,128.876 C149.628,129.42 149.424,129.828 149.288,130.1 L149.288,130.1 L149.288,120.24 C149.741333,120.013333 150.206,119.73 150.682,119.39 C151.158,119.05 151.622667,118.517333 152.076,117.792 L152.076,117.792 L145.208,112.08 L142.148,115.956 L135.416,116.296 C135.597333,115.389333 135.801333,114.346667 136.028,113.168 C136.254667,111.989333 136.504,110.674667 136.776,109.224 L136.776,109.224 L152.688,108.34 C153.232,108.294667 153.742,108.113333 154.218,107.796 C154.694,107.478667 155.022667,106.798667 155.204,105.756 C154.342667,104.804 153.402,103.840667 152.382,102.866 C151.362,101.891333 150.058667,100.769333 148.472,99.5 L148.472,99.5 L145.14,104.736 L117.6,106.3 L118.552,110.244 L129.364,109.632 C129.137333,110.72 128.922,111.864667 128.718,113.066 C128.514,114.267333 128.298667,115.48 128.072,116.704 L128.072,116.704 L118.212,117.248 L119.3,121.192 L127.188,120.784 C126.236,125.544 125.442667,129.193333 124.808,131.732 L124.808,131.732 L114.948,132.276 L115.9,136.22 Z M109.508,164.236 C110.46,163.556 111.128667,162.921333 111.514,162.332 C111.899333,161.742667 112.182667,161.085333 112.364,160.36 C113.633333,158.773333 115.061333,156.835333 116.648,154.546 C118.234667,152.256667 120.070667,149.548 122.156,146.42 L122.156,146.42 L120.932,144.244 L114.744,149.208 L114.744,124.388 C115.197333,124.206667 115.650667,123.934667 116.104,123.572 C116.557333,123.209333 116.942667,122.642667 117.26,121.872 L117.26,121.872 L112.21,117.383 L112.304704,117.390746 C112.990869,117.429841 113.655093,117.240747 114.297376,116.823462 L114.472,116.704 C115.152,116.205333 115.639333,115.570667 115.934,114.8 C116.228667,114.029333 116.353333,113.190667 116.308,112.284 C116.172,109.745333 115.140667,107.66 113.214,106.028 C111.287333,104.396 108.556,103.104 105.02,102.152 L105.02,102.152 L103.184,103.648 C105.133333,106.096 106.606667,108.328667 107.604,110.346 C108.601333,112.363333 109.326667,114.346667 109.78,116.296 C110.048373,116.506347 110.313845,116.686519 110.576416,116.836518 L110.74,116.927 L108.284,119.968 L99.512,120.512 L100.668,124.456 L107.672,124.048 L107.672,152.54 C107.672,152.812 107.490667,153.186 107.128,153.662 C106.765333,154.138 105.926667,154.784 104.612,155.6 L104.612,155.6 L109.508,164.236 Z M132.084,131.324 C132.492,129.601333 132.888667,127.844667 133.274,126.054 C133.659333,124.263333 134.078667,122.370667 134.532,120.376 L134.532,120.376 L142.216,119.968 L142.216,130.78 L132.084,131.324 Z M122.156,165.936 L123.924,165.868 C125.102667,165.777333 126.281333,165.437333 127.46,164.848 C128.276,164.44 128.82,164.020667 129.092,163.59 C129.364,163.159333 129.5,162.808 129.5,162.536 L129.5,162.536 L129.5,160.904 L143.848,160.088 L143.848,164.032 L145.616,163.964 C146.658667,163.918667 147.746667,163.624 148.88,163.08 C149.650667,162.762667 150.206,162.422667 150.546,162.06 C150.886,161.697333 151.101333,161.402667 151.192,161.176 L151.192,161.176 L151.192,143.428 C151.645333,143.246667 152.098667,142.997333 152.552,142.68 C153.005333,142.362667 153.504,141.796 154.048,140.98 L154.048,140.98 L146.772,134.996 L143.78,138.94 L129.092,139.756 L122.156,136.832 L122.156,146.42 L122.156,165.936 Z M129.5,156.96 L129.5,143.768 L143.848,142.952 L143.848,156.144 L129.5,156.96 Z" id="场景英语" fill="#FFFFFF" fill-rule="nonzero"></path>
                    <path d="M230.72,75.84 C240.98,75.84 247.04,69.66 247.04,62.4 C247.04,55.98 243.5,52.56 238.1,50.34 L232.28,47.88 C228.5,46.38 225.32,45.24 225.32,42.06 C225.32,39.12 227.84,37.38 231.74,37.38 C235.4,37.38 238.34,38.7 241.16,41.04 L245.66,35.46 C242.06,31.8 236.9,29.76 231.74,29.76 C222.74,29.76 216.38,35.34 216.38,42.6 C216.38,49.08 220.88,52.68 225.38,54.54 L231.32,57.06 C235.28,58.74 237.98,59.76 237.98,63.06 C237.98,66.18 235.52,68.16 230.9,68.16 C227,68.16 222.8,66.18 219.62,63.24 L214.52,69.36 C218.84,73.5 224.78,75.84 230.72,75.84 Z M268.46,75.84 C272.18,75.84 276.26,74.58 279.44,71.76 L275.96,65.94 C274.1,67.5 271.82,68.64 269.42,68.64 C264.56,68.64 261.08,64.56 261.08,58.26 C261.08,51.9 264.56,47.76 269.66,47.76 C271.58,47.76 273.14,48.54 274.82,49.98 L279.02,44.28 C276.56,42.18 273.38,40.56 269.24,40.56 C260.12,40.56 252.08,47.04 252.08,58.26 C252.08,69.36 259.16,75.84 268.46,75.84 Z M300.38,75.84 C304.58,75.84 308.84,74.4 312.14,72.12 L309.14,66.72 C306.74,68.22 304.34,69.06 301.58,69.06 C296.6,69.06 293,66.18 292.28,60.66 L312.98,60.66 C313.22,59.88 313.4,58.26 313.4,56.64 C313.4,47.34 308.6,40.56 299.36,40.56 C291.32,40.56 283.7,47.34 283.7,58.26 C283.7,69.3 291.02,75.84 300.38,75.84 Z M305.84,54.84 L292.16,54.84 C292.82,49.92 295.94,47.4 299.48,47.4 C303.8,47.4 305.84,50.28 305.84,54.84 Z M329.42,75 L329.42,51.9 C331.94,49.44 333.68,48.12 336.44,48.12 C339.74,48.12 341.18,49.98 341.18,55.14 L341.18,75 L350,75 L350,54.06 C350,45.6 346.88,40.56 339.62,40.56 C335.06,40.56 331.64,42.96 328.7,45.84 L328.46,45.84 L327.86,41.4 L320.66,41.4 L320.66,75 L329.42,75 Z M373.7,75.84 C377.9,75.84 382.16,74.4 385.46,72.12 L382.46,66.72 C380.06,68.22 377.66,69.06 374.9,69.06 C369.92,69.06 366.32,66.18 365.6,60.66 L386.3,60.66 C386.54,59.88 386.72,58.26 386.72,56.64 C386.72,47.34 381.92,40.56 372.68,40.56 C364.64,40.56 357.02,47.34 357.02,58.26 C357.02,69.3 364.34,75.84 373.7,75.84 Z M379.16,54.84 L365.48,54.84 C366.14,49.92 369.26,47.4 372.8,47.4 C377.12,47.4 379.16,50.28 379.16,54.84 Z M245.36,155 L245.36,147.56 L226.34,147.56 L226.34,135.68 L241.94,135.68 L241.94,128.24 L226.34,128.24 L226.34,117.98 L244.7,117.98 L244.7,110.6 L217.46,110.6 L217.46,155 L245.36,155 Z M262.4,155 L262.4,131.9 C264.92,129.44 266.66,128.12 269.42,128.12 C272.72,128.12 274.16,129.98 274.16,135.14 L274.16,155 L282.98,155 L282.98,134.06 C282.98,125.6 279.86,120.56 272.6,120.56 C268.04,120.56 264.62,122.96 261.68,125.84 L261.44,125.84 L260.84,121.4 L253.64,121.4 L253.64,155 L262.4,155 Z M303.92,169.58 C315.14,169.58 322.16,164.42 322.16,157.64 C322.16,151.76 317.78,149.24 309.68,149.24 L303.98,149.24 C300.02,149.24 298.7,148.28 298.7,146.48 C298.7,145.16 299.18,144.38 300.14,143.6 C301.58,144.08 303.14,144.38 304.46,144.38 C311.66,144.38 317.42,140.54 317.42,132.98 C317.42,130.88 316.76,129.02 315.86,127.88 L321.62,127.88 L321.62,121.4 L309.5,121.4 C308.12,120.92 306.32,120.56 304.46,120.56 C297.32,120.56 290.9,124.82 290.9,132.74 C290.9,136.64 293.06,139.82 295.34,141.5 L295.34,141.74 C293.36,143.18 291.62,145.52 291.62,148.04 C291.62,150.8 292.94,152.54 294.68,153.68 L294.68,153.98 C291.62,155.72 289.88,158.12 289.88,160.94 C289.88,166.88 296,169.58 303.92,169.58 Z M304.46,138.92 C301.52,138.92 299.18,136.7 299.18,132.74 C299.18,128.78 301.46,126.56 304.46,126.56 C307.46,126.56 309.68,128.78 309.68,132.74 C309.68,136.7 307.4,138.92 304.46,138.92 Z M305.24,164 C300.32,164 297.2,162.38 297.2,159.56 C297.2,158.18 297.92,156.86 299.42,155.66 C300.62,155.96 302.06,156.14 304.1,156.14 L308.18,156.14 C311.78,156.14 313.76,156.74 313.76,159.14 C313.76,161.78 310.28,164 305.24,164 Z M336.2,155.84 C338.24,155.84 339.74,155.48 340.76,155.06 L339.68,148.52 C339.08,148.64 338.84,148.64 338.48,148.64 C337.64,148.64 336.68,147.98 336.68,146 L336.68,107.12 L327.92,107.12 L327.92,145.58 C327.92,151.82 330.08,155.84 336.2,155.84 Z M351.26,116 C354.26,116 356.48,113.96 356.48,111.2 C356.48,108.32 354.26,106.4 351.26,106.4 C348.2,106.4 345.98,108.32 345.98,111.2 C345.98,113.96 348.2,116 351.26,116 Z M355.58,155 L355.58,121.4 L346.82,121.4 L346.82,155 L355.58,155 Z M374.66,155.84 C383.42,155.84 388.04,151.1 388.04,145.22 C388.04,138.98 383.12,136.76 378.68,135.08 C375.14,133.76 371.84,132.86 371.84,130.4 C371.84,128.48 373.28,127.16 376.28,127.16 C378.8,127.16 381.14,128.36 383.54,130.04 L387.5,124.7 C384.68,122.6 380.96,120.56 376.04,120.56 C368.48,120.56 363.56,124.82 363.56,130.88 C363.56,136.46 368.48,139.04 372.74,140.66 C373.0055,140.7635 373.270663,140.86565 373.534045,140.967133 L374.058008,141.169414 C377.095625,142.346563 379.76,143.495 379.76,145.7 C379.76,147.8 378.26,149.24 374.9,149.24 C371.78,149.24 368.9,147.92 365.9,145.58 L361.88,151.1 C365.18,153.86 370.16,155.84 374.66,155.84 Z M403.52,155 L403.52,131.9 C406.04,129.44 407.78,128.12 410.54,128.12 C413.84,128.12 415.28,129.98 415.28,135.14 L415.28,155 L424.1,155 L424.1,134.06 C424.1,125.6 420.98,120.56 413.72,120.56 C409.16,120.56 405.86,122.96 403.16,125.48 L403.52,119.18 L403.52,107.12 L394.76,107.12 L394.76,155 L403.52,155 Z M438.14,155.84 C441.32,155.84 443.66,153.32 443.66,150.08 C443.66,146.84 441.32,144.32 438.14,144.32 C435.02,144.32 432.68,146.84 432.68,150.08 C432.68,153.32 435.02,155.84 438.14,155.84 Z M466.94,155.84 C470.66,155.84 474.74,154.58 477.92,151.76 L474.44,145.94 C472.58,147.5 470.3,148.64 467.9,148.64 C463.04,148.64 459.56,144.56 459.56,138.26 C459.56,131.9 463.04,127.76 468.14,127.76 C470.06,127.76 471.62,128.54 473.3,129.98 L477.5,124.28 C475.04,122.18 471.86,120.56 467.72,120.56 C458.6,120.56 450.56,127.04 450.56,138.26 C450.56,149.36 457.64,155.84 466.94,155.84 Z M498.32,155.84 C506.72,155.84 514.46,149.36 514.46,138.26 C514.46,127.04 506.72,120.56 498.32,120.56 C489.92,120.56 482.18,127.04 482.18,138.26 C482.18,149.36 489.92,155.84 498.32,155.84 Z M498.32,148.64 C493.76,148.64 491.18,144.56 491.18,138.26 C491.18,131.9 493.76,127.76 498.32,127.76 C502.88,127.76 505.46,131.9 505.46,138.26 C505.46,144.56 502.88,148.64 498.32,148.64 Z M530.6,155 L530.6,131.9 C533,129.38 535.16,128.12 537.08,128.12 C540.26,128.12 541.76,129.98 541.76,135.14 L541.76,155 L550.58,155 L550.58,131.9 C552.98,129.38 555.14,128.12 557.06,128.12 C560.24,128.12 561.74,129.98 561.74,135.14 L561.74,155 L570.56,155 L570.56,134.06 C570.56,125.6 567.26,120.56 560.12,120.56 C555.74,120.56 552.5,123.2 549.44,126.44 C547.82,122.72 545,120.56 540.2,120.56 C535.82,120.56 532.7,122.96 529.88,125.9 L529.64,125.9 L529.04,121.4 L521.84,121.4 L521.84,155 L530.6,155 Z" id="SceneEnglish.com" fill="#4D57FF" fill-rule="nonzero"></path>
                </g>
            </g>
        </g>
    </g>
</svg>