<?xml version="1.0" encoding="UTF-8"?>
<svg width="146px" height="31px" viewBox="0 0 146 31" version="1.1" xmlns="http://www.w3.org/2000/svg" xmlns:xlink="http://www.w3.org/1999/xlink">
    <title>logo 整体</title>
    <defs>
        <linearGradient x1="28.7026646%" y1="50%" x2="71.2973354%" y2="50.0004783%" id="linearGradient-1">
            <stop stop-color="#32C9F0" offset="0%"></stop>
            <stop stop-color="#4C0FC2" offset="50.2868226%"></stop>
            <stop stop-color="#8A12C5" offset="100%"></stop>
        </linearGradient>
        <linearGradient x1="7.4604324%" y1="50%" x2="92.5395676%" y2="50.0004783%" id="linearGradient-2">
            <stop stop-color="#F0BF13" offset="0%"></stop>
            <stop stop-color="#EB4E20" offset="50.2868226%"></stop>
            <stop stop-color="#E23524" offset="100%"></stop>
        </linearGradient>
    </defs>
    <g id="有光英语20230929✅" stroke="none" stroke-width="1" fill="none" fill-rule="evenodd">
        <g id="欢迎页" transform="translate(-23.000000, -22.000000)">
            <g id="logo-4" transform="translate(23.000000, 22.000000)">
                <g id="logo-整体" transform="translate(0.000000, -0.000000)">
                    <g id="场景英语logo-2" transform="translate(-0.000000, -0.000000)">
                        <g id="场景英语logo" transform="translate(-0.000000, -0.000000)">
                            <path d="M13.6605,0 C12.6495,0.009 11.6405,0.4 10.8685,1.171 L10.8685,1.171 L9.4295,2.61 C8.8865,3.153 8.8865,4.033 9.4295,4.576 L9.4295,4.576 L18.0465,13.192 C19.2185,14.363 19.2185,16.263 18.0465,17.435 L18.0465,17.435 L9.4295,26.05 C8.8865,26.594 8.8865,27.473 9.4295,28.017 L9.4295,28.017 L10.8685,29.455 C12.4315,31.018 14.9635,31.018 16.5255,29.455 L16.5255,29.455 L27.8395,18.141 C29.4015,16.58 29.4015,14.047 27.8395,12.486 L27.8395,12.486 L16.5255,1.171 C15.7535,0.4 14.7455,0.009 13.7345,0 L13.7345,0 L13.6605,0 Z" id="Fill-9" fill="url(#linearGradient-1)"></path>
                            <path d="M3.5095,10.561 L0.8775,13.192 C-0.2925,14.363 -0.2925,16.263 0.8775,17.435 L0.8775,17.435 L3.5095,20.066 C4.2905,20.848 5.5565,20.848 6.3385,20.066 L6.3385,20.066 L8.9705,17.435 C10.1415,16.263 10.1415,14.363 8.9705,13.192 L8.9705,13.192 L6.3385,10.561 C5.9475,10.17 5.4355,9.975 4.9235,9.975 L4.9235,9.975 C4.4115,9.975 3.9005,10.17 3.5095,10.561" id="Fill-11" fill="url(#linearGradient-2)"></path>
                        </g>
                    </g>
                    <g id="编组-4" transform="translate(36.758400, 5.327800)" fill="#000000">
                        <path d="M20.19,7.4105 L26.4,7.4105 L24.69,19.6205 C24.61,20.2005 24.345,20.6765 23.895,21.0455 C23.445,21.4155 22.94,21.6005 22.379,21.6005 L17.28,21.6005 L19.95,18.8105 L21.15,10.2615 L20.58,10.2615 L16.77,21.6005 L13.35,21.6005 L17.16,10.2615 L16.32,10.2615 L12.48,21.6005 L9.06,21.6005 L12.9,10.2615 L11.76,10.2615 L12.15,7.4105 L20.31,3.4205 L12.81,3.4205 L13.2,0.5705 L26.79,0.5705 L26.25,4.5605 L20.19,7.4105 Z M9.36,19.3805 L9.23705556e-14,21.0905 L0.419,18.2405 L2.43,17.8805 L3.57,9.6905 L1.62,9.6905 L2.01,6.8405 L3.99,6.8405 L4.71,1.7105 L3.72,0.5705 L10.02,0.5705 L9.15,6.8405 L11.129,6.8405 L10.74,9.6905 L8.73,9.6905 L7.74,16.9205 L9.78,16.5305 L9.36,19.3805 Z" id="Fill-1"></path>
                        <path d="M49.2593,17.3402 L51.5703,21.3612 L46.7093,21.3612 L44.4293,17.3402 L49.2593,17.3402 Z M36.4793,3.0302 L48.4193,3.0302 L48.5093,2.3702 L36.5703,2.3702 L36.4793,3.0302 Z M48.0593,5.5212 L48.1503,4.9202 L36.2093,4.9202 L36.1193,5.5212 L48.0593,5.5212 Z M46.0493,14.4312 L46.1993,13.5002 L36.1503,13.5002 L35.9993,14.4312 L46.0493,14.4312 Z M31.9493,1.6512 L31.0193,0.5112 L53.7293,0.5112 L52.7393,7.6512 L31.1103,7.6512 L31.9493,1.6512 Z M52.0793,11.5802 L51.3603,16.5902 L43.5303,16.5902 L43.0193,20.3402 C42.9593,20.7002 42.7193,21.0002 42.2993,21.2402 C41.8793,21.4812 41.3793,21.6012 40.7993,21.6012 L36.0303,21.6012 L37.6793,20.4312 L38.2193,16.5902 L30.3893,16.5902 L31.1103,11.5802 L52.0793,11.5802 Z M44.5193,7.9812 L44.4293,8.5212 L53.8793,8.5212 L53.5193,11.0112 L29.4293,11.0112 L29.7893,8.5212 L39.0593,8.5212 L39.1503,7.9812 L44.5193,7.9812 Z M36.2993,17.3402 L32.9693,21.3612 L28.1393,21.3612 L31.4693,17.3402 L36.2993,17.3402 Z" id="Fill-3"></path>
                        <path d="M71.9702,9.391 L71.5202,12.511 L74.4302,12.511 L74.8802,9.391 L71.9702,9.391 Z M63.0302,12.511 L65.8502,12.511 L66.3002,9.391 L63.4802,9.391 L63.0302,12.511 Z M78.8402,1.411 L82.2602,1.411 L81.8692,4.261 L78.4492,4.261 L78.3292,5.071 L72.6302,5.071 L72.7202,4.261 L68.1902,4.261 L68.0702,5.071 L62.3692,5.071 L62.4602,4.261 L57.9302,4.261 L58.3202,1.411 L62.8502,1.411 L62.9092,1.141 L61.9492,-4.26325641e-14 L68.7902,-4.26325641e-14 L68.5792,1.411 L73.1102,1.411 L73.1702,1.141 L72.2102,-4.26325641e-14 L79.0502,-4.26325641e-14 L78.8402,1.411 Z M72.5102,5.641 L72.3292,6.84 L80.4002,6.84 L79.5902,12.511 L81.2702,12.511 L80.8802,15.33 L74.0702,15.33 L80.0102,21.571 L73.1402,21.571 L69.0002,16.861 L62.8202,21.571 L54.9302,21.571 L63.4492,15.33 L55.8292,15.33 L56.2202,12.511 L57.9002,12.511 L58.7102,6.84 L66.6302,6.84 L66.8102,5.641 L72.5102,5.641 Z" id="Fill-5"></path>
                        <path d="M99.3604,7.4408 L98.4284,9.3308 L102.5404,9.3308 L102.8094,7.4408 L99.3604,7.4408 Z M101.3394,18.4808 L101.7584,15.4508 L95.8194,15.4508 L95.3994,18.4808 L101.3394,18.4808 Z M95.8194,4.7408 L96.5084,3.3608 L92.1594,3.3608 L92.5494,0.6608 L109.1394,0.6608 L108.7494,3.3608 L101.3994,3.3608 L100.7104,4.7408 L107.7904,4.7408 L107.1304,9.3308 L108.3894,9.3308 L108.0304,11.9708 L90.7194,11.9708 L91.0794,9.3308 L93.5404,9.3308 L94.4694,7.4408 L92.3094,7.4408 L92.7004,4.7408 L95.8194,4.7408 Z M106.9504,12.8108 L105.7804,21.1208 L90.2394,21.1208 L91.4094,12.8108 L106.9504,12.8108 Z M89.7904,0.5708 L90.5084,4.2908 L85.9504,4.2908 L85.2294,0.5708 L89.7904,0.5708 Z M83.2794,21.5108 L85.0794,8.7908 L83.5204,8.7908 L83.9404,5.7608 L90.4194,5.7608 L88.8294,17.0408 L90.2104,16.6208 L89.7584,19.7108 L83.2794,21.5108 Z" id="Fill-7"></path>
                    </g>
                </g>
            </g>
        </g>
    </g>
</svg>