<?xml version="1.0" encoding="UTF-8"?>
<svg width="31px" height="31px" viewBox="0 0 31 31" version="1.1" xmlns="http://www.w3.org/2000/svg" xmlns:xlink="http://www.w3.org/1999/xlink">
    <title>场景英语logo</title>
    <defs>
        <linearGradient x1="28.7026646%" y1="50%" x2="71.2973354%" y2="50.0004783%" id="linearGradient-1">
            <stop stop-color="#32C9F0" offset="0%"></stop>
            <stop stop-color="#4C0FC2" offset="50.2868226%"></stop>
            <stop stop-color="#8A12C5" offset="100%"></stop>
        </linearGradient>
        <linearGradient x1="7.4604324%" y1="50%" x2="92.5395676%" y2="50.0004783%" id="linearGradient-2">
            <stop stop-color="#F0BF13" offset="0%"></stop>
            <stop stop-color="#EB4E20" offset="50.2868226%"></stop>
            <stop stop-color="#E23524" offset="100%"></stop>
        </linearGradient>
    </defs>
    <g id="有光英语20230929✅" stroke="none" stroke-width="1" fill="none" fill-rule="evenodd">
        <g id="欢迎页" transform="translate(-23.000000, -22.000000)">
            <g id="logo-3" transform="translate(23.000000, 22.000000)">
                <g id="场景英语logo-2" transform="translate(-0.000000, -0.000000)">
                    <g id="场景英语logo" transform="translate(-0.000000, -0.000000)">
                        <path d="M13.6605,0 C12.6495,0.009 11.6405,0.4 10.8685,1.171 L10.8685,1.171 L9.4295,2.61 C8.8865,3.153 8.8865,4.033 9.4295,4.576 L9.4295,4.576 L18.0465,13.192 C19.2185,14.363 19.2185,16.263 18.0465,17.435 L18.0465,17.435 L9.4295,26.05 C8.8865,26.594 8.8865,27.473 9.4295,28.017 L9.4295,28.017 L10.8685,29.455 C12.4315,31.018 14.9635,31.018 16.5255,29.455 L16.5255,29.455 L27.8395,18.141 C29.4015,16.58 29.4015,14.047 27.8395,12.486 L27.8395,12.486 L16.5255,1.171 C15.7535,0.4 14.7455,0.009 13.7345,0 L13.7345,0 L13.6605,0 Z" id="Fill-9" fill="url(#linearGradient-1)"></path>
                        <path d="M3.5095,10.561 L0.8775,13.192 C-0.2925,14.363 -0.2925,16.263 0.8775,17.435 L0.8775,17.435 L3.5095,20.066 C4.2905,20.848 5.5565,20.848 6.3385,20.066 L6.3385,20.066 L8.9705,17.435 C10.1415,16.263 10.1415,14.363 8.9705,13.192 L8.9705,13.192 L6.3385,10.561 C5.9475,10.17 5.4355,9.975 4.9235,9.975 L4.9235,9.975 C4.4115,9.975 3.9005,10.17 3.5095,10.561" id="Fill-11" fill="url(#linearGradient-2)"></path>
                    </g>
                </g>
            </g>
        </g>
    </g>
</svg>