<?xml version="1.0" encoding="UTF-8"?>
<svg width="11px" height="10px" viewBox="0 0 11 10" version="1.1" xmlns="http://www.w3.org/2000/svg" xmlns:xlink="http://www.w3.org/1999/xlink">
    <title>折叠2</title>
    <g id="有光英语20230929✅" stroke="none" stroke-width="1" fill="none" fill-rule="evenodd">
        <g id="首页备份-2" transform="translate(-553.000000, -879.000000)" fill="#333333" fill-rule="nonzero">
            <g id="编组-6" transform="translate(461.000000, 874.000000)">
                <g id="折叠1-2" transform="translate(92.500000, 5.500000)">
                    <g id="折叠2" transform="translate(5.000000, 4.500000) scale(1, -1) rotate(-270.000000) translate(-5.000000, -4.500000) translate(0.500000, -0.500000)">
                        <path d="M5.57692308,5.2919708 C5.73076923,5.1459854 5.73076923,4.9270073 5.57692308,4.7810219 L0.730769231,0.109489051 C0.576923077,-0.0364963504 0.346153846,-0.0364963504 0.192307692,0.109489051 C-0.0384615385,0.255474453 -0.0384615385,0.474452555 0.115384615,0.620437956 L4.73076923,5 L0.115384615,9.37956204 C-0.0384615385,9.52554745 -0.0384615385,9.74452555 0.115384615,9.89051095 C0.269230769,10.0364964 0.5,10.0364964 0.653846154,9.89051095 L5.57692308,5.2919708 L5.57692308,5.2919708 Z M3.42307692,0.620437956 L8.03846154,5 L3.42307692,9.37956204 C3.26923077,9.52554745 3.26923077,9.74452555 3.42307692,9.89051095 C3.57692308,10.0364964 3.80769231,10.0364964 3.96153846,9.89051095 L8.88461538,5.2189781 C9.03846154,5.0729927 9.03846154,4.8540146 8.88461538,4.7080292 L3.96153846,0.109489051 C3.80769231,-0.0364963504 3.57692308,-0.0364963504 3.42307692,0.109489051 C3.26923077,0.255474453 3.26923077,0.474452555 3.42307692,0.620437956 Z" id="形状"></path>
                    </g>
                </g>
            </g>
        </g>
    </g>
</svg>