<?xml version="1.0" standalone="no"?><!DOCTYPE svg PUBLIC "-//W3C//DTD SVG 1.1//EN" "http://www.w3.org/Graphics/SVG/1.1/DTD/svg11.dtd"><svg t="1702084806622" class="icon" viewBox="0 0 1024 1024" version="1.1" xmlns="http://www.w3.org/2000/svg" p-id="5629" xmlns:xlink="http://www.w3.org/1999/xlink" width="200" height="200"><path d="M502.844779 0.000602a496.309337 496.309337 0 0 1 337.35784 131.485836l-68.122071 62.761447a406.082227 406.082227 0 0 0-269.235769-101.189282c-228.519129 0-411.382618 186.176233-411.382618 418.911582s182.863489 418.911582 411.382618 418.911583c228.579361 0 411.382618-186.176233 411.382618-418.911583 0-39.150615-5.119696-76.976133-14.817002-112.814003l67.640217-85.288109a521.606657 521.606657 0 0 1 38.608529 198.102112c0 283.932308-223.941519 511.969583-502.814362 511.969583C223.971936 1023.939768 0.030417 795.902493 0.030417 511.970185S224.032168 0.000602 502.844779 0.000602z" fill="#FFFFFF" p-id="5630"></path><path d="M274.32565 372.353068l-45.776104 93.058001 320.011105 325.853582 457.158722-605.087816-45.776104-93.118232L502.844779 511.970185z" fill="#FFFFFF" p-id="5631"></path></svg>